<svg width="1919" height="695" viewBox="0 0 1919 695" fill="none" xmlns="http://www.w3.org/2000/svg">
<path d="M0 526.344C73 576.994 172.8 584.251 274 568.701C414.3 547.375 539.7 370.248 712 388.02C880.6 405.347 984 535.082 1115 448.741C1246 362.399 1301 194.899 1450 198.453C1639.2 203.044 1724.2 236.811 1900 25.1769C1906.9 16.8833 1913.6 8.44165 1920 0V694.585H0L0 526.344Z" fill="#318F7B"/>
<path d="M0 526.344C73 576.994 176.3 613.39 277.5 597.839C417.8 576.513 542.7 390.917 715 408.689C883.6 426.017 998 572.551 1129 486.21C1260 399.868 1308 230.868 1457 234.423C1646.2 239.014 1724.2 236.811 1900 25.1769C1906.9 16.8833 1913.6 8.44165 1920 0V694.585H0L0 526.344Z" fill="#A4D29F"/>
<path d="M0 526.344C73 576.994 181.8 634.475 283 618.925C423.3 597.599 530.2 407.662 702.5 425.433C871.1 442.761 999.5 593.017 1130.5 506.675C1261.5 420.333 1313.5 253.194 1462.5 256.748C1651.7 261.34 1724.2 236.811 1900 25.1769C1906.9 16.8833 1913.6 8.44165 1920 0V694.585H0L0 526.344Z" fill="#C7F3C2"/>
<path d="M0 526.344C73 576.994 198.3 652.46 299.5 636.91C439.8 615.584 521.7 428.747 694 446.519C862.6 463.847 996.5 612.686 1127.5 526.344C1258.5 440.003 1306.5 278.621 1455.5 282.175C1644.7 286.766 1724.2 236.811 1900 25.1769C1906.9 16.8833 1913.6 8.44165 1920 0V694.585H0L0 526.344Z" fill="#F7F5F9"/>
</svg>
