<svg width="1919" height="1095" viewBox="0 0 1919 1095" fill="none" xmlns="http://www.w3.org/2000/svg">
<path opacity="0.2" d="M614.048 989.436C224.156 1011.87 43.6454 918.464 -4 886.258V752.067H1930V1007.92C1612.59 1217.86 1198.62 948.839 886.499 971.544C697.931 985.261 707.326 984.069 614.048 989.436Z" fill="url(#paint0_linear_401_20)"/>
<path opacity="0.2" d="M1930 2.38562H-2.65784V882.68C565.06 839.739 530.836 1106.93 1090.5 1015.08C1392.91 965.454 1643.46 1099.77 1930 1005.54V2.38562Z" fill="url(#paint1_linear_401_20)"/>
<path d="M-2.6579 0H1930V1007.92C1495.15 823.039 1422.68 1103.95 841.538 954.248C546.173 878.164 391.926 806.936 -2.6579 883.276V0Z" fill="url(#paint2_linear_401_20)"/>
<path d="M72.8209 0H1V71.8208H72.8209V0Z" fill="#00B33C"/>
<path d="M1858 0H1929.82V71.8208H1858V0Z" fill="#00B33C"/>
<path d="M179 143.821H250.821V72.0001H179V143.821Z" fill="#00B33C"/>
<path d="M1751.82 143.821H1680V72.0001H1751.82V143.821Z" fill="#00B33C"/>
<path d="M36.9104 71.8208H72.8208V35.9104C53.0837 35.9104 36.9104 52.0837 36.9104 71.8208Z" fill="#006650"/>
<path d="M1893.91 71.8208H1858V35.9104C1877.74 35.9104 1893.91 52.0837 1893.91 71.8208Z" fill="#006650"/>
<path d="M214.911 72.0001H179V107.911C198.737 107.911 214.911 91.7372 214.911 72.0001Z" fill="#006650"/>
<path d="M1715.91 72.0001H1751.82V107.911C1732.08 107.911 1715.91 91.7372 1715.91 72.0001Z" fill="#006650"/>
<path d="M73.0951 71H1.27417V142.821H73.0951V71Z" fill="#006650"/>
<path d="M1857.73 71H1929.55V142.821H1857.73V71Z" fill="#006650"/>
<path d="M178.726 72.8209H250.547V0.999969H178.726V72.8209Z" fill="#006650"/>
<path d="M1752.09 72.8209H1680.27V0.999969H1752.09V72.8209Z" fill="#006650"/>
<path d="M73.369 142.821L37.4585 106.91L73.369 71V142.821Z" fill="white"/>
<path d="M1857.45 142.821L1893.36 106.91L1857.45 71V142.821Z" fill="white"/>
<path d="M178.452 0.999969L214.362 36.9105L178.452 72.8209V0.999969Z" fill="white"/>
<path d="M1752.37 0.999969L1716.46 36.9105L1752.37 72.8209V0.999969Z" fill="white"/>
<path d="M37.1845 142.821L1 106.91L37.1845 71V142.821Z" fill="#00B33C"/>
<path d="M1893.64 142.821L1929.82 106.91L1893.64 71V142.821Z" fill="#00B33C"/>
<path d="M214.636 0.999969L250.821 36.9105L214.636 72.8209V0.999969Z" fill="#00B33C"/>
<path d="M1716.18 0.999969L1680 36.9105L1716.18 72.8209V0.999969Z" fill="#00B33C"/>
<path d="M1 0H36.9105L1 35.9104V0Z" fill="#006650"/>
<path d="M1929.82 0H1893.91L1929.82 35.9104V0Z" fill="#006650"/>
<path d="M250.821 143.821H214.91L250.821 107.911V143.821Z" fill="#006650"/>
<path d="M1680 143.821H1715.91L1680 107.911V143.821Z" fill="#006650"/>
<path d="M72.8209 0L1 71.8208V54.5509L55.0027 0H72.8209Z" fill="#A4DBA2"/>
<path d="M1858 0L1929.82 71.8208V54.5509L1875.82 0H1858Z" fill="#A4DBA2"/>
<path d="M179 143.821L250.821 72.0001V89.27L196.818 143.821H179Z" fill="#A4DBA2"/>
<path d="M1751.82 143.821L1680 72.0001V89.27L1734 143.821H1751.82Z" fill="#A4DBA2"/>
<path d="M72 0V71.821H143.821C143.821 32.3469 111.748 0 72 0Z" fill="#A4DBA2"/>
<path d="M1858.82 0V71.821H1787C1787 32.3469 1819.07 0 1858.82 0Z" fill="#A4DBA2"/>
<path d="M179.821 143.821V72H108C108 111.474 140.073 143.821 179.821 143.821Z" fill="#A4DBA2"/>
<path d="M1751 143.821V72H1822.82C1822.82 111.474 1790.75 143.821 1751 143.821Z" fill="#A4DBA2"/>
<path d="M107.911 72.095H72V36.1846C91.7371 36.1846 107.911 52.0838 107.911 72.095Z" fill="#006650"/>
<path d="M1822.91 72.095H1858.82V36.1846C1839.08 36.1846 1822.91 52.0838 1822.91 72.095Z" fill="#006650"/>
<path d="M143.91 71.726H179.821V107.636C160.084 107.636 143.91 91.7371 143.91 71.726Z" fill="#006650"/>
<path d="M1786.91 71.726H1751V107.636C1770.74 107.636 1786.91 91.7371 1786.91 71.726Z" fill="#006650"/>
<defs>
<linearGradient id="paint0_linear_401_20" x1="53.0398" y1="659.626" x2="2212.21" y2="1317.42" gradientUnits="userSpaceOnUse">
<stop stop-color="#004B3C"/>
<stop offset="1" stop-color="#B7D8CB"/>
</linearGradient>
<linearGradient id="paint1_linear_401_20" x1="106.725" y1="910.114" x2="1764.75" y2="-533.868" gradientUnits="userSpaceOnUse">
<stop stop-color="#00A343"/>
<stop offset="1" stop-color="#D1EDCC"/>
</linearGradient>
<linearGradient id="paint2_linear_401_20" x1="-2.65776" y1="-75.1473" x2="2315.77" y2="1572.71" gradientUnits="userSpaceOnUse">
<stop stop-color="#006650"/>
<stop offset="1" stop-color="#349B86"/>
</linearGradient>
</defs>
</svg>
